HIERARCHY
ROOT Hips
{
  OFFSET 196.326 95.9168 97.7182
  CHANNELS 6 Xposition Yposition Zposition Zrotation Xrotation Yrotation
  JOINT LeftUpLeg
  {
    OFFSET 8.64259 1.95398 -2.38835
    CHANNELS 3 Zrotation Xrotation Yrotation
    JOINT LeftLeg
    {
      OFFSET 43.7702 0 0
      CHANNELS 3 Zrotation Xrotation Yrotation
      JOINT LeftFoot
      {
        OFFSET 40.6238 0 0
        CHANNELS 3 Zrotation Xrotation Yrotation
        JOINT LeftToeBase
        {
          OFFSET 12.7242 0 0
          CHANNELS 3 Zrotation Xrotation Yrotation
          End Site
          {
            OFFSET 0 0 0
          }
        }
      }
    }
  }
  JOINT RightUpLeg
  {
    OFFSET -8.2249 1.95398 -2.59336
    CHANNELS 3 Zrotation Xrotation Yrotation
    JOINT RightLeg
    {
      OFFSET 43.5653 0 0
      CHANNELS 3 Zrotation Xrotation Yrotation
      JOINT RightFoot
      {
        OFFSET 40.6238 0 0
        CHANNELS 3 Zrotation Xrotation Yrotation
        JOINT RightToeBase
        {
          OFFSET 12.7242 0 0
          CHANNELS 3 Zrotation Xrotation Yrotation
          End Site
          {
            OFFSET 0 0 0
          }
        }
      }
    }
  }
  JOINT Spine
  {
    OFFSET 0.165834 0.87714 6.61349
    CHANNELS 3 Zrotation Xrotation Yrotation
    JOINT Spine1
    {
      OFFSET 7.38963 1.71661e-005 0
      CHANNELS 3 Zrotation Xrotation Yrotation
      JOINT Spine2
      {
        OFFSET 11.9445 1.14441e-005 0
        CHANNELS 3 Zrotation Xrotation Yrotation
        JOINT Spine3
        {
          OFFSET 14.7254 4.19617e-005 0
          CHANNELS 3 Zrotation Xrotation Yrotation
          JOINT Spine4
          {
            OFFSET 10.9679 0 0
            CHANNELS 3 Zrotation Xrotation Yrotation
            JOINT RightShoulder
            {
              OFFSET 2.46616 -1.6653 3.69651
              CHANNELS 3 Zrotation Xrotation Yrotation
              JOINT RightArm
              {
                OFFSET 13.0012 0 0
                CHANNELS 3 Zrotation Xrotation Yrotation
                JOINT RightForeArm
                {
                  OFFSET 28.7848 1.52588e-005 0
                  CHANNELS 3 Zrotation Xrotation Yrotation
                  JOINT RightHand
                  {
                    OFFSET 26.5688 1.52588e-005 0
                    CHANNELS 3 Zrotation Xrotation Yrotation
                    End Site
                    {
                      OFFSET 0 0 0
                    }
                  }
                }
              }
            }
            JOINT LeftShoulder
            {
              OFFSET 2.38034 -1.29275 -3.75231
              CHANNELS 3 Zrotation Xrotation Yrotation
              JOINT LeftArm
              {
                OFFSET 16.3182 6.10351e-005 0
                CHANNELS 3 Zrotation Xrotation Yrotation
                JOINT LeftForeArm
                {
                  OFFSET 27.0901 0 0
                  CHANNELS 3 Zrotation Xrotation Yrotation
                  JOINT LeftHand
                  {
                    OFFSET 24.5451 1.52588e-005 0
                    CHANNELS 3 Zrotation Xrotation Yrotation
                    End Site
                    {
                      OFFSET 0 0 0
                    }
                  }
                }
              }
            }
            JOINT Neck
            {
              OFFSET 5.0226 -0.0266342 0
              CHANNELS 3 Zrotation Xrotation Yrotation
              JOINT Head
              {
                OFFSET 6.69363 2.86102e-005 0
                CHANNELS 3 Zrotation Xrotation Yrotation
                End Site
                {
                  OFFSET 0 0 0
                }
              }
            }
          }
        }
      }
    }
  }
}
MOTION
Frames:	17
Frame Time:	0.0416667
-126.673 94.8003 -95.2004 89.3504 -40.4859 89.2548 -172.978 24.6247 88.8044 -23.0223 13.529 -1.65082 54.8428 2.79676 15.0908 53.1902 22.4579 -13.9505 179.619 8.83266 94.5938 -29.7854 9.69906 -1.5862 73.591 -4.20765 -2.08445 36.4639 0.571264 20.5535 0.535224 7.4596 -89.9552 11.9553 1.08544 -0.027968 0.284808 1.08316 -0.0757219 -22.2538 1.04366 0.299583 -2.24114 1.04365 0.299574 77.7339 -51.3163 -118.662 11.5272 -9.56275 -0.382423 -12.2757 -12.5893 -52.3488 -10.4134 -0.848352 4.08677 -103.983 -42.852 55.0716 -26.2959 1.09946 14.2276 5.19669 0.649727 -42.9933 12.3488 0.681142 1.59843 11.991 0.0766142 2.442 1.87695 -0.392549 1.67873 
-130.015 95.7226 -97.8722 89.5077 -39.914 88.4772 -172.062 21.4025 89.0512 -31.8356 11.4865 -1.64964 53.098 1.58345 14.7805 58.9016 24.93 -20.9793 179.485 10.7853 93.3887 -27.9231 8.56482 -1.38499 69.5886 -2.7431 -1.43256 35.4131 0.310076 19.9675 0.417236 7.34536 -89.8392 12.1826 0.905491 0.219998 0.511929 0.914271 0.179919 -22.0252 0.797498 0.481972 -2.01251 0.797509 0.481971 78.335 -52.1188 -117.464 13.2443 -11.0093 3.91167 -12.2757 -12.5942 -52.6447 -8.90863 -0.698819 3.30426 -103.72 -41.8515 54.9873 -25.8553 1.23324 13.6141 6.72097 1.96321 -46.4668 11.3969 0.692385 2.11838 10.2225 -0.828131 0.272456 1.81544 -0.615755 3.41454 
-133.176 96.0456 -100.691 89.0804 -39.9182 87.7308 -171.114 17.3021 89.95 -38.0461 9.84713 -1.51848 52.4809 1.0052 13.5258 53.4801 22.1023 -16.0818 179.311 13.4062 92.5402 -26.8431 8.60033 -0.97646 67.5729 -1.95547 -1.02671 32.1528 -0.480576 20.6742 0.254435 7.19401 -89.8051 12.4853 0.598358 0.320893 0.814417 0.611886 0.294244 -21.7212 0.474241 0.48589 -1.70853 0.474252 0.485884 78.7041 -52.3147 -116.855 14.8292 -12.4185 7.24856 -12.7363 -12.9825 -52.0693 -8.47373 -0.679503 3.32931 -103.027 -41.3892 55.8297 -25.4014 0.331687 13.3616 9.60124 3.34801 -51.5999 9.16652 0.592722 2.35339 10.1653 -1.03271 0.00722432 0.824259 -0.786861 3.40722 
-136.447 95.4125 -103.823 88.7506 -40.0417 87.8476 -170.878 12.4213 91.6346 -41.3138 9.8605 -0.938197 49.1767 -1.58306 12.9449 52.9561 19.7675 -23.8415 179.553 16.6621 92.6893 -27.2547 9.30552 -0.770604 68.331 -2.03979 -1.06674 28.7307 -1.41771 21.7575 0.0303474 7.09421 -89.8617 12.6851 0.126326 0.261402 1.01417 0.137688 0.255588 -21.5208 0.0419186 0.287285 -1.50814 0.0419092 0.287279 78.1844 -52.8776 -117.372 15.0026 -12.3314 10.4907 -11.8255 -11.6966 -51.2076 -7.62358 -0.585132 2.62756 -102.352 -40.983 56.6822 -24.6143 -1.15531 13.4402 10.1303 2.11713 -56.9229 8.25929 0.606243 3.10955 10.9628 -0.681369 -0.362472 -0.408499 -0.37946 3.64809 
-140.065 94.181 -107.374 88.0164 -39.8763 87.7967 -171.53 8.12769 92.6957 -42.2508 12.7866 -0.199546 46.8704 -3.98482 10.3901 53.0889 21.6053 -16.8157 -179.691 22.4652 93.0631 -30.8798 9.53952 -1.29294 67.9188 -2.12792 -1.12169 29.3415 -1.32046 22.8755 -0.231374 7.07019 -89.9311 12.7339 -0.426527 0.188196 1.06302 -0.417837 0.206775 -21.4727 -0.46339 0.0512991 -1.46004 -0.463373 0.0513019 79.2795 -52.4461 -115.976 15.1334 -11.9475 10.9717 -11.1934 -11.6813 -51.1324 -8.83928 -0.643772 2.57089 -101.907 -40.66 57.2249 -23.2121 -3.64267 12.3069 11.3858 1.84791 -60.9494 8.92454 0.728376 3.89549 12.4612 -0.41057 -0.683997 -1.14635 -0.0460364 3.79535 
-144.08 92.6009 -111.466 88.5226 -39.7495 88.8709 -172.869 4.26453 93.0861 -43.1887 17.6953 0.80125 47.9259 -3.41832 10.9002 58.8069 26.5905 -15.7735 -178.805 27.7786 93.639 -34.1025 10.2233 -1.75839 66.6449 -2.24114 -1.19856 32.0683 -0.581083 22.7579 -0.486077 7.1702 -90.031 12.5339 -0.9804 0.0518188 0.863259 -0.977173 0.0949088 -21.6746 -0.950664 -0.245259 -1.66192 -0.950645 -0.245255 79.3935 -52.875 -115.645 14.3076 -10.7165 10.4179 -10.1472 -11.592 -50.0618 -8.79174 -0.663244 2.97354 -102.162 -40.7725 56.8788 -20.8954 -5.68745 11.8304 11.7492 1.42009 -63.7012 9.86459 0.79158 3.83544 12.7016 -0.223045 -1.2261 -0.916948 0.293779 4.05153 
-148.205 91.3708 -115.694 88.5798 -38.0959 89.4606 -174.825 2.08904 92.6036 -42.5529 22.5108 2.01079 50.746 -1.61845 10.1478 63.8158 34.4539 -7.01531 -178.015 31.9199 93.285 -34.3977 9.7826 -2.10632 64.4325 -1.68725 -0.890643 34.6337 0.0999575 19.5868 -0.766528 7.24192 -90.0811 12.3916 -1.56161 0.0156848 0.721572 -1.5594 0.0844076 -21.8208 -1.4941 -0.454477 -1.80814 -1.4941 -0.45448 79.1821 -53.9462 -115.534 13.707 -7.91164 10.0404 -10.7695 -12.1493 -48.7292 -8.97295 -0.789116 4.6502 -102.973 -40.1219 55.2949 -19.0744 -6.84322 10.89 12.3313 1.73557 -64.2063 10.7682 1.00033 5.07921 12.9125 -0.602038 -2.15038 -0.605654 0.175431 4.14624 
-152.711 90.8035 -120.448 88.3297 -37.3421 89.5048 -174.94 2.16947 91.6015 -39.6912 24.0858 1.94783 54.7722 2.85606 14.2994 71.4369 40.3397 -9.24019 -177.357 34.054 92.262 -30.6004 9.4943 -2.22644 64.7527 -1.65579 -0.875586 40.8401 1.54374 18.1984 -0.835119 7.3724 -90.1091 12.1298 -1.71166 -0.0290922 0.459936 -1.71127 0.0462864 -22.0836 -1.62375 -0.542306 -2.07091 -1.62376 -0.542307 78.1879 -54.553 -116.698 13.0012 -4.61275 9.61417 -8.65 -9.84965 -46.8903 -8.65828 -0.719152 4.09449 -103.582 -40.0468 54.3046 -17.3655 -7.00416 7.67482 12.5491 2.52271 -61.8863 11.4642 1.03005 4.85196 12.7075 -1.20205 -3.07945 0.430922 -0.124705 4.48116 
-158.047 90.8257 -125.442 88.7863 -37.8616 88.8498 -172.615 3.93813 90.1081 -37.1254 19.4881 0.0885597 60.4078 9.96751 19.0208 66.7922 35.8484 -9.87695 -176.334 33.5156 91.0122 -23.6148 9.85566 -2.75715 70.3661 -3.14313 -1.62269 43.1623 2.14368 19.4599 -0.788493 7.58895 -89.9228 11.699 -1.53202 0.314478 0.0289156 -1.51668 0.38161 -22.5135 -1.5557 -0.160618 -2.50082 -1.55567 -0.160601 75.877 -56.0301 -119.305 11.2663 -2.47199 9.58018 -7.99113 -8.72256 -47.8457 -7.68771 -0.61515 3.57717 -103.248 -39.2849 54.4416 -16.9041 -6.61274 5.59929 12.4297 2.79492 -60.569 10.3595 0.90728 4.55572 13.1745 -1.85916 -5.09836 1.40511 -0.142059 5.30066 
-163.128 90.8871 -130.176 88.2201 -38.8084 87.6953 -171.76 7.28902 88.2561 -35.2734 17.4318 -1.19862 61.0654 14.4856 26.455 70.2094 32.885 -22.2894 -176.87 32.5127 90.1178 -16.8071 14.3698 -1.92196 71.1798 -3.22712 -1.6541 44.0511 2.33826 19.31 -0.697664 7.67957 -89.7809 11.5182 -1.28554 0.567788 -0.152297 -1.25931 0.623819 -22.6924 -1.39674 0.155119 -2.67978 -1.39676 0.15511 75.5718 -56.0443 -119.717 11.4417 -2.77504 8.99686 -6.0876 -6.21612 -50.7315 -9.64502 -0.722962 3.47591 -103.34 -38.5704 53.9292 -16.5928 -5.13088 6.09312 11.0527 2.17274 -60.0022 11.9438 1.02545 4.4944 13.4862 -2.04397 -5.57692 2.22188 -0.127563 5.55359 
-166.963 91.5473 -134.055 86.8805 -39.5179 86.4829 -172.005 10.008 86.5369 -32.1166 14.3701 -1.52199 61.7627 16.4106 27.9794 67.5438 28.8443 -27.3244 -178.206 33.56 89.4486 -21.3743 14.9647 -0.99552 66.3655 -1.95601 -1.05341 38.5131 1.05227 19.0303 -0.545047 7.58362 -89.7598 11.7092 -0.971318 0.580481 0.0384282 -0.94482 0.622663 -22.4992 -1.10087 0.261701 -2.48659 -1.10088 0.261698 75.3089 -55.9144 -120.131 11.6628 -2.57768 9.7121 -6.34294 -6.09968 -54.7262 -9.53783 -0.642117 2.55086 -103.523 -39.0813 53.9035 -16.9791 -2.06873 6.90296 11.3899 3.00848 -58.7296 11.1798 0.959318 4.44381 14.0568 -1.54147 -4.79934 2.00515 0.178354 5.56898 
-170.621 92.84 -137.402 87.3432 -42.0962 87.0241 -171.478 12.0495 86.5781 -30.4276 10.9505 -2.03612 61.794 13.3702 23.3758 62.8946 25.2423 -28.568 -179.057 32.1977 90.5949 -29.6112 14.5979 -1.08317 63.6938 -2.04711 -1.11666 36.823 0.661922 20.0839 -0.235395 7.5749 -89.7963 11.7246 -0.372482 0.445239 0.053667 -0.35255 0.461195 -22.4816 -0.489085 0.312707 -2.46891 -0.489097 0.312695 75.6989 -55.1343 -119.924 12.3353 -4.2235 8.6073 -7.0283 -5.51171 -54.8584 -11.5775 -0.850533 3.41295 -103.377 -39.675 54.436 -19.4613 0.214467 8.37741 10.2204 3.54169 -54.5203 13.0323 1.12392 4.59668 13.5527 -0.686277 -3.76798 1.79279 0.68502 5.15424 
-173.987 94.3425 -140.231 88.5383 -43.8298 88.5567 -171.034 13.0652 87.8064 -27.7973 11.4689 -2.46321 59.6831 8.55565 18.7072 56.0575 22.1757 -23.1322 179.492 29.2554 91.5051 -39.1597 15.1719 -1.08664 60.9296 -1.94583 -1.0562 40.7278 1.52636 18.4826 -0.00676276 7.52417 -89.883 11.8255 0.0415587 0.228881 0.154483 0.0516303 0.226813 -22.3805 -0.0291147 0.230791 -2.36786 -0.0291258 0.230791 76.3122 -53.8815 -119.599 14.0942 -5.28953 7.56262 -7.84094 -6.6667 -53.9005 -9.64957 -0.657688 2.49132 -102.978 -39.8221 55.1376 -23.4051 1.8427 10.3544 7.87629 3.44049 -47.8288 12.3897 0.942633 3.59301 11.3701 0.339375 -3.03028 2.12159 1.46551 5.31768 
-177.158 95.2727 -142.731 89.7669 -43.3205 90.0386 -171.503 13.8688 88.516 -25.2615 12.1999 -2.24497 57.9155 5.92414 17.3505 49.4223 17.3842 -22.9304 177.104 24.7678 91.2631 -47.9348 14.4525 -0.789698 59.8274 -2.23121 -1.25617 39.9924 1.12769 13.7986 0.0137018 7.46992 -89.9804 11.934 0.0365241 0.0352542 0.263024 0.0380359 0.0336007 -22.2721 0.0242346 0.0446038 -2.25948 0.0242623 0.0446052 77.3553 -53.2649 -118.39 15.3327 -6.30553 6.07464 -10.9312 -8.71138 -53.588 -9.45601 -0.658197 2.55682 -102.977 -40.0582 55.2566 -26.798 4.05455 11.9596 5.51153 3.69615 -40.4276 13.6769 0.988658 3.28546 10.3046 1.1795 -2.15094 1.7588 2.04284 5.34724 
-180.377 95.2796 -145.007 90.4472 -42.7934 90.8889 -171.803 15.4057 88.9868 -24.1069 11.8319 -2.19559 57.6408 4.56117 16.3117 45.4748 14.3584 -23.8395 175.544 19.2593 89.8301 -52.5026 18.0786 -0.810267 49.5285 -1.15261 -0.391047 49.6213 4.88271 21.5762 0.0824965 7.36278 -90.0134 12.1483 0.157739 -0.044198 0.47739 0.155625 -0.0511005 -22.0579 0.163713 0.00524932 -2.04521 0.163709 0.00524978 78.0935 -53.1737 -117.381 16.0208 -6.80717 5.54024 -11.8488 -10.4673 -55.0732 -11.1274 -0.757394 2.65709 -102.645 -40.2191 55.8556 -29.9145 6.21197 13.5485 5.211 7.36193 -34.6724 14.8175 1.09991 3.48206 10.5747 1.38788 -2.09513 0.659193 2.18603 5.32439 
-183.977 94.756 -147.288 90.0642 -43.1967 90.5095 -171.91 17.8733 89.0791 -23.3392 10.9344 -2.29458 58.1441 4.28903 15.427 40.8364 10.7804 -26.6007 175.37 14.0852 89.1825 -54.6117 11.948 -1.84487 48.3685 -0.337317 0.147187 44.6418 2.71555 13.1096 0.273061 7.22355 -90.006 12.4268 0.539912 -0.0734767 0.756 0.536144 -0.0971674 -21.78 0.537024 0.0921918 -1.76739 0.537024 0.0921937 78.8152 -52.2011 -116.74 17.1249 -7.03207 5.15862 -11.8261 -9.28043 -57.5053 -12.7175 -0.988898 3.9569 -102.182 -40.5882 56.7591 -32.3017 7.23546 14.9 4.46481 9.23477 -31.1108 15.1128 1.08544 3.26994 11.922 1.62799 -0.893043 -0.349398 2.03836 4.16759 
-188.193 93.6483 -149.67 88.5603 -44.4987 88.7427 -172.058 22.0227 88.6152 -23.7711 9.05528 -2.28262 58.3784 4.69864 16.0665 36.6875 7.76964 -32.1557 176.821 10.5839 88.43 -54.4704 6.71366 -3.66029 48.688 0.263557 0.58927 37.2918 0.713558 15.6998 0.556281 7.06402 -89.8833 12.7459 1.16062 0.0955442 1.07552 1.16372 0.0443522 -21.4633 1.07825 0.439985 -1.45067 1.07825 0.439978 78.7049 -52.0302 -116.967 16.8076 -6.90186 4.33858 -14.0238 -10.0095 -58.6149 -13.6016 -0.990836 3.45728 -101.963 -41.1441 57.3662 -33.0852 6.82583 16.5385 3.38553 7.92969 -28.826 14.3368 0.930431 2.57372 13.5275 1.49418 -0.84561 -1.92528 1.84711 4.16732 
